# xmcd
#
# Track frame offsets: 
#        150
#        11650
#        25073
#        35451
#        45704
#        55700
#        67430
#        75405
#        86801
#        99624
#        108069
#        126362
#        136771
#        145882
#        161913
#        179144
#        188621
#        204787
#        217590
#        232793
#        241413
#        261014
#        280007
#        293712
#
# Disc length: 4123 seconds
#
# Revision: 0
# Processed by: cddbd v1.4PL0 Copyright (c) Steve Scherf et al.
# Submitted via: ExactAudioCopy v0.90b4
#
DISCID=4a101918
DTITLE=COP - HIS MASTER´S COP
DYEAR=2002
DGENRE=Bluegrass
TTITLE0=Harley
TTITLE1=Tvá máma to ví
TTITLE2=Hej Joe
TTITLE3=New Orleans
TTITLE4=Koulí
TTITLE5=Divnej sen
TTITLE6=Pláè
TTITLE7=Dál jen se smìj
TTITLE8=Myslím na Colorádo
TTITLE9=Hrou získás
TTITLE10=Srámy
TTITLE11=Tennessee Waltz
TTITLE12=Nic víc
TTITLE13=Pastorále
TTITLE14=Svítá
TTITLE15=Kladivo
TTITLE16=Cumberland v horách
TTITLE17=Král snílkù
TTITLE18=Mamá
TTITLE19=Tvùj stín
TTITLE20=Bílým koním
TTITLE21=Sance
TTITLE22=Stopy kol
TTITLE23=Jít cestou
EXTD=
EXTT0=
EXTT1=
EXTT2=
EXTT3=
EXTT4=
EXTT5=
EXTT6=
EXTT7=
EXTT8=
EXTT9=
EXTT10=
EXTT11=
EXTT12=
EXTT13=
EXTT14=
EXTT15=
EXTT16=
EXTT17=
EXTT18=
EXTT19=
EXTT20=
EXTT21=
EXTT22=
EXTT23=
PLAYORDER=
